<svg width="18" height="21" viewBox="0 0 18 21" fill="none" xmlns="http://www.w3.org/2000/svg">
<path d="M9.86894 1.17994C9.492 0.50983 9.65959 -0.328158 10.5389 0.13209C11.4183 0.59283 11.5447 1.09627 11.5447 1.97584C12.4244 1.01268 13.7227 1.85018 13.8064 1.97584C13.8899 2.10167 13.764 2.43642 12.8855 2.64576C12.0067 2.85504 11.7124 2.31151 11.5447 2.4358C11.4662 2.4947 11.3451 2.72016 11.2361 2.9524C11.7651 3.18017 12.1398 3.42707 12.3406 3.56764C13.1464 4.13173 14.5186 5.28544 14.9793 7.12818C15.1928 7.98241 15.2728 8.9217 16.1521 10.0598C16.8642 10.9814 17.116 12.9087 17.116 13.7883C17.116 14.5847 16.7806 15.5892 16.2781 16.385C15.406 17.7659 13.3886 18.7729 13.0945 18.9827C12.8014 19.1921 12.9691 19.5275 12.8016 20.2395C12.6337 20.9512 11.0414 20.7415 10.1199 20.7415C9.38306 20.7412 9.29696 20.0156 9.283 19.6526H8.06816C8.0542 19.8201 7.96669 20.2309 7.73222 20.5325C7.43851 20.9091 5.88948 20.8252 5.13554 20.7415C4.38156 20.6577 4.42342 19.7781 4.33964 19.1917C4.25583 18.6056 3.9626 18.6051 3.29277 18.1028C2.75662 17.7007 2.25947 16.79 2.07792 16.385C1.78472 16.385 1.03033 16.0419 0.360149 14.6682C-0.477629 12.9508 0.377278 11.4173 0.611125 10.8977C1.25203 9.47379 1.74237 9.68299 1.90995 8.30103C2.20954 5.82969 3.50206 4.61484 4.80058 3.56764C5.83935 2.73002 7.22997 2.35206 8.98906 2.4358C9.76772 2.47293 10.4322 2.64141 10.9666 2.84303C11.0725 2.65233 11.2028 2.44721 11.2937 2.3108C11.1681 2.18518 10.2461 1.84995 9.86894 1.17994ZM6.89433 7.92408C6.38536 7.92408 5.97245 8.33699 5.97245 8.84596C5.97264 9.35477 6.38548 9.76686 6.89433 9.76686C7.40307 9.76672 7.81504 9.35468 7.81523 8.84596C7.81523 8.33707 7.40318 7.92421 6.89433 7.92408ZM10.1619 7.92408C9.65294 7.92408 9.24003 8.33699 9.24003 8.84596C9.24022 9.35477 9.65305 9.76686 10.1619 9.76686C10.6707 9.76681 11.0836 9.35474 11.0838 8.84596C11.0838 8.33702 10.6708 7.92413 10.1619 7.92408Z" fill="white"/>
</svg>
